<?xml version="1.0" encoding="utf-8"?>
<!-- Generator: Adobe Illustrator 27.8.1, SVG Export Plug-In . SVG Version: 6.00 Build 0)  -->
<svg version="1.1" id="Layer_1" xmlns="http://www.w3.org/2000/svg" xmlns:xlink="http://www.w3.org/1999/xlink" x="0px" y="0px"
	 viewBox="0 0 600 600" style="enable-background:new 0 0 600 600;" xml:space="preserve">
<style type="text/css">
	.st0{fill:#ED1C24;stroke:#000000;stroke-width:4;stroke-miterlimit:10;}
	.st1{fill:#FFFFFF;stroke:#010101;stroke-miterlimit:10;}
	.st2{fill:#FFFFFF;stroke:#000000;stroke-width:2;stroke-miterlimit:10;}
	.st3{fill:#FFFFFF;}
	.st4{fill:url(#SVGID_1_);}
	.st5{fill:url(#SVGID_00000107553249941365062760000001627856137062598787_);}
	.st6{fill:url(#SVGID_00000029758887615989696200000013965435973101825442_);}
	.st7{fill:url(#SVGID_00000155833120244858485020000003702993067015956369_);}
	.st8{fill:#D9E691;}
	.st9{fill:url(#SVGID_00000115507350983051354140000000446162863681635493_);}
</style>
<path class="st0" d="M162.08,141.25l3.05,282.85c0.23,21.14,13.06,40.09,32.6,48.16l85.16,35.16c11.77,4.86,24.9,5.29,36.97,1.22
	l81.78-27.59c21.44-7.23,35.87-27.33,35.87-49.95V140.68c0-29.12-23.6-52.72-52.72-52.72H214.79
	C185.46,87.96,161.76,111.91,162.08,141.25z"/>
<path class="st1" d="M299.29,406.5l15.34,6.75l6.41,2.53c7.38,2.91,16.53,6.28,24.93,9.11c3.25,1.14,6.03,2.15,6.2,2.32
	c0.38,0.3-3.96,13.58-4.93,15.02c-0.8,1.22-2.02,1.31-3.16,0.17c-1.81-1.81-4.56-0.55-4.89,2.32c-0.25,2.07,0.42,3.46,2.32,4.72
	c1.81,1.22,4.39,1.27,6.28,0.13c2.15-1.31,3.59-4.05,6.41-12.32c1.43-4.26,2.74-7.84,2.91-8.06c0.55-0.55,31.42,10.33,36.44,12.86
	c2.66,1.31,4.09,3.12,4.09,5.19c0,3.54,1.64,5.9,4.51,6.54c4.68,1.05,8.27-2.15,8.27-7.38c0.04-4.56-1.64-7.51-6.03-10.8
	c-5.23-3.92-12.65-7-31.42-12.99c-6.75-2.15-12.27-3.96-12.32-4.01c-0.17-0.13,4.3-13.29,4.93-14.68c0.76-1.6,1.94-1.9,3.12-0.8
	c2.24,2.11,5.31,0.51,5.31-2.78c0-3.42-3.54-5.74-7.21-4.77c-3.29,0.89-4.85,3.75-8.86,15.9c-1.01,3.08-1.94,5.61-2.11,5.61
	c-0.33,0-20.23-6.73-25.81-8.7c-0.62-0.24-16.95-6.03-17.18-6.56l-5.81-2.49c-23.75-10.16-45.21-22.86-60.1-35.51
	c-11.85-10.08-21.64-21.09-28.01-31.46c-1.05-1.77-2.53-3.84-3.25-4.6c-2.24-2.36-4.09-1.48-3.42,1.73
	c0.51,2.24,5.53,11.77,8.86,16.74c14.26,21.34,37.24,39.73,70.44,56.35c5.36,2.7,9.74,4.93,9.83,5.02"/>
<path class="st1" d="M304.86,408.09l-15.34,6.75l-6.41,2.53c-7.38,2.91-16.53,6.28-24.93,9.11c-3.25,1.14-6.03,2.15-6.2,2.32
	c-0.38,0.3,3.96,13.58,4.93,15.02c0.8,1.22,2.02,1.31,3.16,0.17c1.81-1.81,4.56-0.55,4.89,2.32c0.25,2.07-0.42,3.46-2.32,4.72
	c-1.81,1.22-4.39,1.27-6.28,0.13c-2.15-1.31-3.59-4.05-6.41-12.32c-1.43-4.26-2.74-7.84-2.91-8.06
	c-0.55-0.55-31.42,10.33-36.44,12.86c-2.66,1.31-4.09,3.12-4.09,5.19c0,3.54-1.64,5.9-4.51,6.54c-4.68,1.05-8.27-2.15-8.27-7.38
	c-0.04-4.56,1.64-7.51,6.03-10.8c5.23-3.92,12.65-7,31.42-12.99c6.75-2.15,12.27-3.96,12.32-4.01c0.17-0.13-4.3-13.29-4.93-14.68
	c-0.76-1.6-1.94-1.9-3.12-0.8c-2.24,2.11-5.31,0.51-5.31-2.78c0-3.42,3.54-5.74,7.21-4.77c3.29,0.89,4.85,3.75,8.86,15.9
	c1.01,3.08,1.94,5.61,2.11,5.61c0.33,0,20.23-6.73,25.81-8.7c0.62-0.24,16.95-6.03,17.18-6.56l5.81-2.49
	c23.75-10.16,45.21-22.86,60.1-35.51c11.85-10.08,21.64-21.09,28.01-31.46c1.05-1.77,2.53-3.84,3.25-4.6
	c2.24-2.36,4.09-1.48,3.42,1.73c-0.51,2.24-5.53,11.77-8.86,16.74c-14.26,21.34-37.24,39.73-70.44,56.35
	c-5.36,2.7-9.74,4.93-9.83,5.02"/>
<polygon class="st2" points="288.84,119.83 314.85,119.83 314.85,173.93 370.29,173.93 370.29,201.95 314.16,201.95 313.48,295.65 
	288.84,295.65 288.84,200.98 229.29,200.01 229.29,173.93 288.15,172 "/>
<path class="st2" d="M255.5,330.74"/>
<path class="st2" d="M255.5,330.74"/>
<g>
	<g>
		<path class="st3" d="M312.08,260.53c1.03,7.03,2.25,14.17,5.49,20.5c3.23,6.33,8.81,11.83,15.77,13.28
			c7.48,1.56,15.3-1.82,20.93-6.99c5.63-5.17,9.46-11.94,13.21-18.6c-6.04-3.42-12.07-6.85-18.11-10.27
			c7.62-10.68,15.25-21.35,22.87-32.03c11.39,14.22,23.43,30.42,21.84,48.57c-1.69,19.34-19.77,34.58-39,37.24
			c-19.23,2.66-38.68-5.21-54.13-16.96"/>
		<g>
			<path d="M312.68,260.37c1.61,10.98,4.01,23.4,13.74,30.21c4.49,3.14,9.89,4.2,15.22,2.96c5.58-1.3,10.45-4.63,14.32-8.78
				c4.5-4.83,7.75-10.63,10.97-16.35c0.07,0.29,0.15,0.57,0.22,0.86c-6.04-3.42-12.07-6.85-18.11-10.27
				c-0.27-0.16-0.42-0.58-0.22-0.86c7.62-10.68,15.25-21.35,22.87-32.03c0.21-0.29,0.71-0.47,0.98-0.13
				c7.49,9.35,15.05,19.1,19.25,30.45c3.78,10.2,4.03,21.35-0.79,31.24c-4.39,9.01-12.21,16.16-21.14,20.56
				c-10.03,4.95-21.32,6.1-32.3,4.33c-13.55-2.18-26.2-8.53-37.07-16.76c-0.63-0.48-0.01-1.57,0.63-1.08
				c17.81,13.49,42.2,22.63,64.16,14.16c9.19-3.54,17.48-9.95,22.71-18.35c5.66-9.11,6.75-19.85,3.81-30.1
				c-3.63-12.67-12.03-23.45-20.14-33.58c0.33-0.04,0.65-0.08,0.98-0.13c-7.62,10.68-15.25,21.35-22.87,32.03
				c-0.07-0.29-0.15-0.57-0.22-0.86c6.04,3.42,12.07,6.85,18.11,10.27c0.3,0.17,0.39,0.56,0.22,0.86
				c-5.79,10.3-12.46,21.6-24.49,25.28c-5.24,1.61-10.84,1.24-15.69-1.4c-4.71-2.56-8.39-6.84-10.81-11.57
				c-3.28-6.41-4.51-13.59-5.55-20.65C311.36,259.91,312.56,259.57,312.68,260.37L312.68,260.37z"/>
		</g>
	</g>
	<g>
		<path class="st3" d="M288.66,260.53c-1.03,7.03-2.25,14.17-5.49,20.5c-3.23,6.33-8.81,11.83-15.77,13.28
			c-7.48,1.56-15.3-1.82-20.93-6.99c-5.63-5.17-9.46-11.94-13.21-18.6c6.04-3.42,12.07-6.85,18.11-10.27
			c-7.62-10.68-15.25-21.35-22.87-32.03c-11.39,14.22-23.43,30.42-21.84,48.57c1.69,19.34,19.77,34.58,39,37.24
			c19.23,2.66,38.68-5.21,54.13-16.96"/>
		<g>
			<path d="M288.06,260.37c-1.61,10.98-4.01,23.4-13.74,30.21c-4.49,3.14-9.89,4.2-15.22,2.96c-5.58-1.3-10.45-4.63-14.32-8.78
				c-4.5-4.83-7.75-10.63-10.97-16.35c-0.07,0.29-0.15,0.57-0.22,0.86c6.04-3.42,12.07-6.85,18.11-10.27
				c0.27-0.16,0.42-0.58,0.22-0.86c-7.62-10.68-15.25-21.35-22.87-32.03c-0.21-0.29-0.71-0.47-0.98-0.13
				c-7.49,9.35-15.05,19.1-19.25,30.45c-3.78,10.2-4.03,21.35,0.79,31.24c4.39,9.01,12.21,16.16,21.14,20.56
				c10.03,4.95,21.32,6.1,32.3,4.33c13.55-2.18,26.2-8.53,37.07-16.76c0.63-0.48,0.01-1.57-0.63-1.08
				c-17.81,13.49-42.2,22.63-64.16,14.16c-9.19-3.54-17.48-9.95-22.71-18.35c-5.66-9.11-6.75-19.85-3.81-30.1
				c3.63-12.67,12.03-23.45,20.14-33.58c-0.33-0.04-0.65-0.08-0.98-0.13c7.62,10.68,15.25,21.35,22.87,32.03
				c0.07-0.29,0.15-0.57,0.22-0.86c-6.04,3.42-12.07,6.85-18.11,10.27c-0.3,0.17-0.39,0.56-0.22,0.86
				c5.79,10.3,12.46,21.6,24.49,25.28c5.24,1.61,10.84,1.24,15.69-1.4c4.71-2.56,8.39-6.84,10.81-11.57
				c3.28-6.41,4.51-13.59,5.55-20.65C289.38,259.91,288.18,259.57,288.06,260.37L288.06,260.37z"/>
		</g>
	</g>
</g>
<g>
	<linearGradient id="SVGID_1_" gradientUnits="userSpaceOnUse" x1="381.1515" y1="368.4914" x2="428.7118" y2="368.4914">
		<stop  offset="0.9877" style="stop-color:#DAE692"/>
		<stop  offset="1" style="stop-color:#FBB06B"/>
	</linearGradient>
	<path class="st4" d="M415.57,381.69c0.97-12.67,8.59-27.71,13.15-42.11c-1.78-0.16-3.59-0.25-5.43-0.25
		c-23.27,0-42.13,13.14-42.13,29.35c0,14.62,15.35,26.74,35.43,28.98C415.29,392.41,415.11,386.74,415.57,381.69z"/>
	
		<linearGradient id="SVGID_00000049923014649002179350000013229810222953831860_" gradientUnits="userSpaceOnUse" x1="376.1862" y1="346.8483" x2="432.1062" y2="346.8483">
		<stop  offset="0.9877" style="stop-color:#DAE692"/>
		<stop  offset="1" style="stop-color:#FBB06B"/>
	</linearGradient>
	<path style="fill:url(#SVGID_00000049923014649002179350000013229810222953831860_);" d="M415.57,381.69
		c1.89-24.61,28.86-58.17,9.7-78.65c-4.54-3.22-9.65-5.04-15.05-5.04c-18.79,0-34.03,21.87-34.03,48.84s15.23,48.84,34.03,48.84
		c1.98,0,3.91-0.26,5.8-0.72C415.24,390.51,415.18,385.89,415.57,381.69z"/>
	
		<linearGradient id="SVGID_00000158023951584081059250000000744919078056432280_" gradientUnits="userSpaceOnUse" x1="402.4683" y1="344.5164" x2="432.1103" y2="344.5164">
		<stop  offset="0.9877" style="stop-color:#DAE692"/>
		<stop  offset="1" style="stop-color:#FBB06B"/>
	</linearGradient>
	<path style="fill:url(#SVGID_00000158023951584081059250000000744919078056432280_);" d="M415.57,381.69
		c1.91-24.84,29.36-58.79,9.16-79.22c-12.99,6.88-22.26,24.8-22.26,45.84c0,15.5,5.03,29.3,12.88,38.25
		C415.35,384.9,415.42,383.26,415.57,381.69z"/>
</g>
<g>
	
		<linearGradient id="SVGID_00000095332770176747236350000015732789279292194215_" gradientUnits="userSpaceOnUse" x1="175.4858" y1="362.5635" x2="225.5589" y2="362.5635">
		<stop  offset="0" style="stop-color:#E5D484"/>
		<stop  offset="0" style="stop-color:#FBB06B"/>
		<stop  offset="0" style="stop-color:#DAE692"/>
	</linearGradient>
	<path style="fill:url(#SVGID_00000095332770176747236350000015732789279292194215_);" d="M225.56,362.44
		c0-14.93-16-27.24-36.7-29.1c-4.55,14.41-12.17,29.45-13.15,42.11c-0.46,5.05-0.27,10.72,1.01,15.96c2.18,0.24,4.42,0.37,6.7,0.37
		C206.7,391.79,225.56,378.65,225.56,362.44z"/>
	<path class="st8" d="M225.56,343.67c0-19.22-7.74-35.83-18.98-43.81c19.16,20.48-7.81,54.04-9.7,78.65
		c-0.38,4.19-0.32,8.82,0.45,13.28C213.36,387.84,225.56,367.8,225.56,343.67z"/>
	
		<linearGradient id="SVGID_00000160909493306942622470000008590535569140647086_" gradientUnits="userSpaceOnUse" x1="175.4858" y1="342.9469" x2="230.6651" y2="342.9469">
		<stop  offset="0.1788" style="stop-color:#DAE692"/>
		<stop  offset="1" style="stop-color:#FBB06B"/>
	</linearGradient>
	<path style="fill:url(#SVGID_00000160909493306942622470000008590535569140647086_);" d="M196.64,294.1c-4.14,0-8.1,1.06-11.77,3
		c20.21,20.42-7.25,54.38-9.16,79.22c-0.14,1.57-0.22,3.21-0.22,4.87c5.81,6.63,13.15,10.6,21.15,10.6
		c18.79,0,34.03-21.87,34.03-48.84C230.67,315.97,215.43,294.1,196.64,294.1z"/>
</g>
</svg>
