<?xml version="1.0" encoding="utf-8"?>
<!-- Generator: Adobe Illustrator 27.8.1, SVG Export Plug-In . SVG Version: 6.00 Build 0)  -->
<svg version="1.1" id="Layer_1" xmlns="http://www.w3.org/2000/svg" xmlns:xlink="http://www.w3.org/1999/xlink" x="0px" y="0px"
	 viewBox="0 0 600 600" style="enable-background:new 0 0 600 600;" xml:space="preserve">
<style type="text/css">
	.st0{fill:#FDF280;stroke:#000000;stroke-miterlimit:10;}
	.st1{fill:url(#SVGID_1_);stroke:#000000;stroke-miterlimit:10;}
	.st2{fill:#470500;stroke:#000000;stroke-miterlimit:10;}
	.st3{fill:#472E26;stroke:#603913;stroke-width:3;stroke-miterlimit:10;}
	.st4{fill:url(#SVGID_00000024724676771210095420000013716570027886026147_);stroke:#000000;stroke-miterlimit:10;}
	.st5{fill:url(#SVGID_00000150814442836998957680000000874523213095255937_);stroke:#000000;stroke-miterlimit:10;}
	.st6{fill:url(#SVGID_00000070086793525587830190000001480149140636342175_);stroke:#000000;stroke-miterlimit:10;}
	.st7{fill:url(#SVGID_00000174580270802642030340000016356761646034881440_);stroke:#000000;stroke-miterlimit:10;}
	.st8{fill:#822E1D;stroke:#603913;stroke-width:3;stroke-miterlimit:10;}
</style>
<g>
	<path class="st0" d="M342.63,214.99c-11.19-4.38-44.77-16.02-64.18-0.63c-31.39,24.89-16.34,113.11,29.68,127.64
		c27.06,8.55,55.18-11.43,61.56-16.18"/>
	
		<linearGradient id="SVGID_1_" gradientUnits="userSpaceOnUse" x1="362.1635" y1="287.8403" x2="369.8938" y2="144.0368" gradientTransform="matrix(0.9929 0.1188 -0.1188 0.9929 36.6571 1.8068)">
		<stop  offset="9.909688e-07" style="stop-color:#FDF282"/>
		<stop  offset="0.1606" style="stop-color:#FDF388"/>
		<stop  offset="0.4106" style="stop-color:#FCF49A"/>
		<stop  offset="0.7169" style="stop-color:#FBF6B6"/>
		<stop  offset="0.9196" style="stop-color:#F9F7CC"/>
	</linearGradient>
	<path class="st1" d="M322.15,220.68c7.33-9.51,30.11-36.81,54.67-33.62c39.73,5.15,72.3,88.51,40.36,124.68
		C398.4,333,364,330.38,356.08,329.59"/>
	<g>
		<path class="st2" d="M329.78,223.91c-5.43-0.31-9.11-11.43-10-18.78c-1.78-14.72,5.38-33.06,17.64-36.51
			c6.29-1.77,13.4,0.53,13.61,2.45c0.22,1.98-6.99,2.71-13.56,8.07c-1.94,1.58-11.68,9.39-10.53,17.29
			c1.12,7.66,2.1,10.56,2.68,17.9C330.06,219.9,334.03,224.16,329.78,223.91z"/>
	</g>
	<path class="st2" d="M322.68,205.73"/>
</g>
<ellipse class="st3" cx="309.61" cy="319.5" rx="211.79" ry="23.87"/>
<g>
	<path class="st0" d="M295.98,195.9c-11.19-4.38-44.77-16.02-64.18-0.63c-31.39,24.89-16.34,113.11,29.68,127.64
		c27.06,8.55,55.18-11.43,61.56-16.18"/>
	
		<linearGradient id="SVGID_00000062184232691017824040000014054733774710241712_" gradientUnits="userSpaceOnUse" x1="313.5683" y1="274.4259" x2="321.2986" y2="130.6224" gradientTransform="matrix(0.9929 0.1188 -0.1188 0.9929 36.6571 1.8068)">
		<stop  offset="9.909688e-07" style="stop-color:#FDF282"/>
		<stop  offset="0.1606" style="stop-color:#FDF388"/>
		<stop  offset="0.4106" style="stop-color:#FCF49A"/>
		<stop  offset="0.7169" style="stop-color:#FBF6B6"/>
		<stop  offset="0.9196" style="stop-color:#F9F7CC"/>
	</linearGradient>
	<path style="fill:url(#SVGID_00000062184232691017824040000014054733774710241712_);stroke:#000000;stroke-miterlimit:10;" d="
		M275.49,201.58c7.33-9.51,30.11-36.81,54.67-33.62c39.73,5.15,72.3,88.51,40.36,124.68c-18.78,21.27-53.18,18.65-61.09,17.86"/>
	<g>
		<path class="st2" d="M283.13,204.82c-5.43-0.31-9.11-11.43-10-18.78c-1.78-14.72,5.37-33.06,17.64-36.51
			c6.29-1.77,13.4,0.53,13.61,2.45c0.22,1.98-6.99,2.71-13.56,8.07c-1.94,1.58-11.68,9.39-10.53,17.29
			c1.12,7.66,2.1,10.56,2.68,17.9C283.4,200.81,287.37,205.06,283.13,204.82z"/>
	</g>
	<path class="st2" d="M276.03,186.64"/>
</g>
<g>
	<path class="st0" d="M312.43,266.81c-11.19-4.38-44.77-16.02-64.18-0.63c-31.39,24.89-16.34,113.11,29.68,127.64
		c27.06,8.55,55.18-11.43,61.56-16.18"/>
	
		<linearGradient id="SVGID_00000074414713228904744030000005749478445589800091_" gradientUnits="userSpaceOnUse" x1="338.3299" y1="342.8835" x2="346.0602" y2="199.0799" gradientTransform="matrix(0.9929 0.1188 -0.1188 0.9929 36.6571 1.8068)">
		<stop  offset="9.909688e-07" style="stop-color:#FDF282"/>
		<stop  offset="0.1606" style="stop-color:#FDF388"/>
		<stop  offset="0.4106" style="stop-color:#FCF49A"/>
		<stop  offset="0.7169" style="stop-color:#FBF6B6"/>
		<stop  offset="0.9196" style="stop-color:#F9F7CC"/>
	</linearGradient>
	<path style="fill:url(#SVGID_00000074414713228904744030000005749478445589800091_);stroke:#000000;stroke-miterlimit:10;" d="
		M291.94,272.5c7.33-9.51,30.11-36.81,54.67-33.62c39.73,5.15,72.3,88.51,40.36,124.68c-18.78,21.27-53.18,18.65-61.09,17.86"/>
	<g>
		<path class="st2" d="M299.58,275.73c-5.43-0.31-9.11-11.43-10-18.78c-1.78-14.72,5.38-33.06,17.64-36.51
			c6.29-1.77,13.4,0.53,13.61,2.45c0.22,1.98-6.99,2.71-13.56,8.07c-1.94,1.58-11.68,9.39-10.53,17.29
			c1.12,7.66,2.1,10.56,2.68,17.9C299.86,271.72,303.82,275.98,299.58,275.73z"/>
	</g>
	<path class="st2" d="M292.48,257.55"/>
</g>
<g>
	<path class="st0" d="M188.12,241.02c-11.19-4.38-44.77-16.02-64.18-0.63c-31.39,24.89-16.34,113.11,29.68,127.64
		c27.06,8.55,55.18-11.43,61.56-16.18"/>
	
		<linearGradient id="SVGID_00000110450809784850288280000017182337378466148500_" gradientUnits="userSpaceOnUse" x1="211.8356" y1="332.0458" x2="219.5659" y2="188.2423" gradientTransform="matrix(0.9929 0.1188 -0.1188 0.9929 36.6571 1.8068)">
		<stop  offset="9.909688e-07" style="stop-color:#FDF282"/>
		<stop  offset="0.1606" style="stop-color:#FDF388"/>
		<stop  offset="0.4106" style="stop-color:#FCF49A"/>
		<stop  offset="0.7169" style="stop-color:#FBF6B6"/>
		<stop  offset="0.9196" style="stop-color:#F9F7CC"/>
	</linearGradient>
	<path style="fill:url(#SVGID_00000110450809784850288280000017182337378466148500_);stroke:#000000;stroke-miterlimit:10;" d="
		M167.63,246.71c7.33-9.51,30.11-36.81,54.67-33.62c39.73,5.15,72.3,88.51,40.36,124.68c-18.78,21.27-53.18,18.65-61.09,17.86"/>
	<g>
		<path class="st2" d="M175.27,249.94c-5.43-0.31-9.11-11.43-10-18.78c-1.78-14.72,5.37-33.06,17.64-36.51
			c6.29-1.77,13.4,0.53,13.61,2.45c0.22,1.98-6.99,2.71-13.56,8.07c-1.94,1.58-11.68,9.39-10.53,17.29
			c1.12,7.66,2.1,10.56,2.68,17.9C175.55,245.93,179.51,250.19,175.27,249.94z"/>
	</g>
	<path class="st2" d="M168.17,231.76"/>
</g>
<g>
	<path class="st0" d="M444.11,278.81c-6.64-10.01-27.42-38.85-52.15-37.42c-40,2.32-78.4,83.14-49.12,121.49
		c17.22,22.55,51.72,22.38,59.67,22.16"/>
	
		<linearGradient id="SVGID_00000152972407507044476630000014013020942991240095_" gradientUnits="userSpaceOnUse" x1="403.5817" y1="241.7103" x2="411.312" y2="97.9068" gradientTransform="matrix(0.744 0.6681 -0.6681 0.744 254.7166 -64.895)">
		<stop  offset="9.909688e-07" style="stop-color:#FDF282"/>
		<stop  offset="0.1606" style="stop-color:#FDF388"/>
		<stop  offset="0.4106" style="stop-color:#FCF49A"/>
		<stop  offset="0.7169" style="stop-color:#FBF6B6"/>
		<stop  offset="0.9196" style="stop-color:#F9F7CC"/>
	</linearGradient>
	<path style="fill:url(#SVGID_00000152972407507044476630000014013020942991240095_);stroke:#000000;stroke-miterlimit:10;" d="
		M424.08,271.68c11.47-3.57,45.8-12.8,64.06,3.93c29.55,27.06,8.26,113.98-38.67,125.21c-27.6,6.6-54.23-15.32-60.25-20.52"/>
	<g>
		<path class="st2" d="M428.47,278.72c-4.26-3.38-0.88-14.59,2.61-21.11c7.01-13.06,23.41-23.96,35.43-19.72
			c6.16,2.17,10.66,8.14,9.73,9.83c-0.96,1.74-7.28-1.8-15.74-1.19c-2.5,0.18-14.96,0.96-18.55,8.09c-3.49,6.92-4.35,9.85-8.1,16.18
			C431,275.6,431.8,281.36,428.47,278.72z"/>
	</g>
	<path class="st2" d="M433.11,259.76"/>
</g>
<path class="st8" d="M512.72,327.75c-32.18,82.32-110.4,137.32-197.03,138.88c-92.88,1.67-177.76-58.41-208.32-148.43L512.72,327.75
	z"/>
</svg>
