<?xml version="1.0" encoding="utf-8"?>
<!-- Generator: Adobe Illustrator 27.8.1, SVG Export Plug-In . SVG Version: 6.00 Build 0)  -->
<svg version="1.1" id="Layer_1" xmlns="http://www.w3.org/2000/svg" xmlns:xlink="http://www.w3.org/1999/xlink" x="0px" y="0px"
	 viewBox="0 0 600 600" style="enable-background:new 0 0 600 600;" xml:space="preserve">
<style type="text/css">
	.st0{fill:#DB5026;stroke:#000000;stroke-miterlimit:10;}
	.st1{fill:url(#SVGID_1_);stroke:#000000;stroke-miterlimit:10;}
	.st2{fill:#470500;stroke:#000000;stroke-miterlimit:10;}
	.st3{fill:#472E26;stroke:#603913;stroke-width:3;stroke-miterlimit:10;}
	.st4{fill:url(#SVGID_00000124127058366549526650000006187263784478789051_);stroke:#000000;stroke-miterlimit:10;}
	.st5{fill:url(#SVGID_00000052088920879417476390000014271325469430191257_);stroke:#000000;stroke-miterlimit:10;}
	.st6{fill:url(#SVGID_00000023966388866117375310000007291025212253585845_);stroke:#000000;stroke-miterlimit:10;}
	.st7{fill:#822E1D;stroke:#603913;stroke-width:3;stroke-miterlimit:10;}
</style>
<g>
	<path class="st0" d="M308.16,219.06c-10.45-5.93-42.02-22.26-63.43-9.8c-34.63,20.15-32.34,109.61,11.13,130.57
		c25.56,12.33,56.25-3.43,63.24-7.22"/>
	
		<linearGradient id="SVGID_1_" gradientUnits="userSpaceOnUse" x1="253.0699" y1="283.9048" x2="346.7821" y2="283.9048" gradientTransform="matrix(0.9919 -0.127 0.127 0.9919 6.3947 22.2046)">
		<stop  offset="0" style="stop-color:#DA5227"/>
		<stop  offset="0.3274" style="stop-color:#C98438"/>
		<stop  offset="0.8749" style="stop-color:#99CC67"/>
	</linearGradient>
	<path class="st1" d="M287.07,221.76c8.62-8.37,35.06-32.13,58.92-25.46c38.59,10.78,58.9,97.93,22.12,129.17
		c-21.63,18.37-55.3,10.85-63.02,8.95"/>
	<g>
		<path class="st2" d="M294.17,226.05c-5.33-1.09-7.38-12.61-7.21-20.01c0.34-14.82,10.05-31.95,22.68-33.61
			c6.48-0.85,13.19,2.44,13.12,4.37c-0.07,1.99-7.3,1.69-14.58,6.05c-2.15,1.29-12.91,7.62-12.89,15.61
			c0.02,7.75,0.57,10.75,0.09,18.1C295.02,222.12,298.34,226.9,294.17,226.05z"/>
	</g>
	<path class="st2" d="M289.74,207.04"/>
</g>
<ellipse class="st3" cx="309.61" cy="319.5" rx="211.79" ry="23.87"/>
<g>
	<path class="st0" d="M182.77,253.52c-11.63-3.02-46.36-10.59-63.8,7c-28.21,28.45-2.78,114.25,44.63,123.21
		c27.88,5.27,53.43-17.9,59.2-23.38"/>
	
		<linearGradient id="SVGID_00000019661794337867201550000004654434102652226746_" gradientUnits="userSpaceOnUse" x1="150.4517" y1="290.6049" x2="244.1639" y2="290.6049" gradientTransform="matrix(0.925 -0.38 0.38 0.925 -67.3717 96.5241)">
		<stop  offset="0" style="stop-color:#DA5227"/>
		<stop  offset="0.3274" style="stop-color:#C98438"/>
		<stop  offset="0.8749" style="stop-color:#99CC67"/>
	</linearGradient>
	<path style="fill:url(#SVGID_00000019661794337867201550000004654434102652226746_);stroke:#000000;stroke-miterlimit:10;" d="
		M163.1,261.6c6.15-10.32,25.52-40.12,50.29-39.88c40.06,0.39,82.3,79.29,54.88,119c-16.12,23.35-50.59,24.83-58.54,24.99"/>
	<g>
		<path class="st2" d="M171.07,263.9c-5.43,0.33-10.41-10.27-12.16-17.45c-3.52-14.4,1.41-33.47,13.18-38.34
			c6.04-2.5,13.37-1.06,13.8,0.81c0.45,1.94-6.62,3.52-12.51,9.63c-1.74,1.8-10.48,10.71-8.4,18.42c2.02,7.48,3.34,10.23,4.78,17.45
			C170.87,259.89,175.31,263.64,171.07,263.9z"/>
	</g>
	<path class="st2" d="M161.86,246.69"/>
</g>
<g>
	<path class="st0" d="M458.79,254c-5.53-10.66-23.1-41.56-47.84-42.78c-40.02-1.98-86.85,74.28-61.83,115.54
		c14.71,24.27,49.03,27.78,56.96,28.41"/>
	
		<linearGradient id="SVGID_00000169543554485476097180000009462796207375543485_" gradientUnits="userSpaceOnUse" x1="426.291" y1="233.3115" x2="520.0032" y2="233.3115" gradientTransform="matrix(0.9009 0.4341 -0.4341 0.9009 135.0353 -105.1207)">
		<stop  offset="0" style="stop-color:#DA5227"/>
		<stop  offset="0.3274" style="stop-color:#C98438"/>
		<stop  offset="0.8749" style="stop-color:#99CC67"/>
	</linearGradient>
	<path style="fill:url(#SVGID_00000169543554485476097180000009462796207375543485_);stroke:#000000;stroke-miterlimit:10;" d="
		M439.64,244.77c11.78-2.32,46.9-7.83,63.28,10.76c26.48,30.07-3.98,114.21-51.84,120.36c-28.15,3.61-52.28-21.03-57.71-26.84"/>
	<g>
		<path class="st2" d="M443.25,252.24c-3.88-3.82,0.68-14.6,4.86-20.71c8.36-12.24,25.84-21.32,37.33-15.82
			c5.89,2.82,9.73,9.23,8.62,10.81c-1.14,1.63-7.04-2.57-15.52-2.87c-2.51-0.09-14.98-0.64-19.31,6.06
			c-4.21,6.5-5.38,9.33-9.79,15.22C446.1,249.41,446.28,255.22,443.25,252.24z"/>
	</g>
	<path class="st2" d="M449.89,233.89"/>
</g>
<g>
	<path class="st0" d="M377.2,285c-5.53-10.66-23.1-41.56-47.84-42.78c-40.02-1.98-86.85,74.28-61.83,115.54
		c14.71,24.27,49.03,27.78,56.96,28.41"/>
	
		<linearGradient id="SVGID_00000020396138641445892180000015944780151763306687_" gradientUnits="userSpaceOnUse" x1="366.2453" y1="296.6565" x2="459.9575" y2="296.6565" gradientTransform="matrix(0.9009 0.4341 -0.4341 0.9009 135.0353 -105.1207)">
		<stop  offset="0" style="stop-color:#DA5227"/>
		<stop  offset="0.3274" style="stop-color:#C98438"/>
		<stop  offset="0.8749" style="stop-color:#99CC67"/>
	</linearGradient>
	<path style="fill:url(#SVGID_00000020396138641445892180000015944780151763306687_);stroke:#000000;stroke-miterlimit:10;" d="
		M358.05,275.77c11.78-2.32,46.9-7.83,63.28,10.76c26.48,30.07-3.98,114.21-51.84,120.36c-28.15,3.61-52.28-21.03-57.71-26.84"/>
	<g>
		<path class="st2" d="M361.66,283.24c-3.88-3.82,0.68-14.6,4.86-20.71c8.36-12.24,25.84-21.32,37.33-15.82
			c5.89,2.82,9.73,9.23,8.62,10.81c-1.14,1.63-7.04-2.57-15.52-2.87c-2.51-0.09-14.98-0.64-19.31,6.06
			c-4.21,6.5-5.38,9.33-9.79,15.22C364.51,280.41,364.69,286.22,361.66,283.24z"/>
	</g>
	<path class="st2" d="M368.3,264.89"/>
</g>
<path class="st7" d="M512.72,327.75c-32.18,82.32-110.4,137.32-197.03,138.88c-92.88,1.67-177.76-58.41-208.32-148.43L512.72,327.75
	z"/>
</svg>
