<?xml version="1.0" encoding="utf-8"?>
<!-- Generator: Adobe Illustrator 27.8.1, SVG Export Plug-In . SVG Version: 6.00 Build 0)  -->
<svg version="1.1" id="Layer_1" xmlns="http://www.w3.org/2000/svg" xmlns:xlink="http://www.w3.org/1999/xlink" x="0px" y="0px"
	 viewBox="0 0 600 600" style="enable-background:new 0 0 600 600;" xml:space="preserve">
<style type="text/css">
	.st0{fill:#6D393E;}
	.st1{fill:#069547;}
	.st2{fill:#69BD45;}
</style>
<path class="st0" d="M380.36,174.52c-1.79-2.04-46.7,42.54-116.33,85.03c-73.8,45.04-131.91,61.22-150.34,65.99
	c-45.45,11.75-83.12,20.59-114.17,16.25c-0.4,3.42-0.86,6.86-1.32,10.29c11.78-0.36,26.09-1.72,44.06-3.41
	c46.97-4.44,81.94-14.33,91.16-17.01c21.64-6.29,109.56-33.4,199.36-109.11C359.6,199.94,381.64,175.98,380.36,174.52z"/>
<path class="st0" d="M129.55,373.34c11.71,7.28,16.59,7.85,22.58,16.12c12.15,16.76,5.53,38.65,7.15,38.8
	c1.55,0.14,10.3-19.77,2.58-38.22c-4.14-9.89-9.74-12.69-30.14-29.15c-24.34-19.63-33.16-31.91-34.69-30.61
	C94.96,332.02,105.73,358.53,129.55,373.34z"/>
<path class="st0" d="M183.66,238.13c11.71,7.28,16.59,7.85,22.58,16.12c12.15,16.76,5.53,38.65,7.15,38.8
	c1.55,0.14,10.3-19.77,2.58-38.22c-4.14-9.89-9.74-12.69-30.14-29.15c-24.34-19.63-33.16-31.91-34.69-30.61
	C149.08,196.81,159.85,223.32,183.66,238.13z"/>
<path class="st1" d="M143.66,218.92l-13.22-1.1C92,214.64,63.41,180.89,66.6,142.44l2.16-26c0.07-0.83,0.8-1.45,1.63-1.38l3.28,0.27
	c43.93,3.64,76.6,42.21,72.95,86.15l-1.33,16.06C145.23,218.37,144.49,218.99,143.66,218.92z"/>
<path class="st1" d="M174.52,199.58l-7.57-10.89c-22.01-31.68-14.17-75.21,17.51-97.22l21.43-14.89c0.69-0.48,1.63-0.31,2.11,0.38
	l1.88,2.71c25.15,36.21,16.19,85.95-20.01,111.1l-13.24,9.2C175.94,200.44,175,200.27,174.52,199.58z"/>
<path class="st1" d="M242.3,532.13l-13.22-1.1c-38.45-3.19-67.03-36.94-63.84-75.38l2.16-26c0.07-0.83,0.8-1.45,1.63-1.38l3.28,0.27
	c43.93,3.64,76.6,42.21,72.95,86.15l-1.33,16.06C243.86,531.58,243.13,532.2,242.3,532.13z"/>
<path class="st2" d="M408.25,213.29c-5.18,0-10.12,1.46-14.63,4.08c-4.5-2.63-9.44-4.08-14.63-4.08c-21.04,0-38.1,23.91-38.1,53.4
	c0,29.49,17.06,53.4,38.1,53.4c5.18,0,10.12-1.46,14.63-4.08c4.5,2.63,9.44,4.08,14.63,4.08c21.04,0,38.1-23.91,38.1-53.4
	C446.35,237.2,429.29,213.29,408.25,213.29z"/>
<path class="st0" d="M393.29,207.17c3.94-2.16,2.44-18.97-6.8-24.49c-3.71-2.22-9.58-3.16-11.56-0.68c-1.98,2.46,0.6,7.43,2.04,10.2
	C381.12,200.22,389.82,209.07,393.29,207.17z"/>
</svg>
