<?xml version="1.0" encoding="utf-8"?>
<!-- Generator: Adobe Illustrator 27.8.1, SVG Export Plug-In . SVG Version: 6.00 Build 0)  -->
<svg version="1.1" id="Layer_1" xmlns="http://www.w3.org/2000/svg" xmlns:xlink="http://www.w3.org/1999/xlink" x="0px" y="0px"
	 viewBox="0 0 600 600" style="enable-background:new 0 0 600 600;" xml:space="preserve">
<style type="text/css">
	.st0{fill:#069547;}
	.st1{fill:#005E29;}
</style>
<path class="st0" d="M284.99,484.95l-64.11-92.28c-16.25-23.39-2-97.83,21.38-114.07l100.87-85.28l50.83,90.04
	c19.39,27.91,14.88,115.54-13.02,134.93L284.99,484.95z"/>
<path class="st1" d="M343.14,193.32c0.79,0.11,1.26,1.38,2.21,3.91c5.99,16.06-4.32,31.16-11.82,51.16
	c-1.84,4.91-4.44,16.97-9.63,41.08c-5.31,24.7-4.99,27.6-10.88,55.1c-4.36,20.32-4.81,19.99-7.48,34.01
	c-4.06,21.28-2.98,21.81-6.8,40.82c-6,29.79-8.58,28.11-7.48,36.73c0.75,5.94,3.11,15.61-2.1,24.46c-1.11,1.89-2.66,4.52-3.55,4.32
	C276.7,482.9,329.16,191.44,343.14,193.32z"/>
<path class="st1" d="M461.99,410.57"/>
<path class="st1" d="M293.94,475.99c-0.32,0.23-0.93-0.06-2.15-0.65c-7.71-3.74-9.19-12.76-13.39-22.59
	c-1.03-2.41-4.25-7.67-10.7-18.18c-6.6-10.77-7.72-11.71-15.08-23.69c-5.44-8.86-5.16-8.89-9.03-14.89
	c-5.88-9.1-6.45-8.91-11.63-17.11c-8.11-12.85-6.6-13.13-9.97-15.87c-2.32-1.89-6.51-4.58-7.68-9.57c-0.25-1.07-0.6-2.56-0.21-2.79
	C218.01,348.31,299.65,471.85,293.94,475.99z"/>
<path class="st1" d="M395.79,384.53c0.26,0.3,0.01,0.93-0.49,2.18c-3.15,7.93-12,10.07-21.45,14.96c-2.32,1.2-7.31,4.79-17.28,11.97
	c-10.21,7.35-11.06,8.53-22.42,16.73c-8.4,6.05-8.45,5.78-14.12,10.07c-8.61,6.51-8.38,7.06-16.14,12.81
	c-12.16,9.01-12.56,7.52-15.03,11.07c-1.7,2.45-4.07,6.81-8.94,8.34c-1.04,0.33-2.49,0.78-2.75,0.41
	C274.54,469.34,391.25,379.17,395.79,384.53z"/>
<path class="st1" d="M399.04,294.17c0.21,0.25,0.01,0.78-0.41,1.82c-2.63,6.62-10.01,8.41-17.9,12.48c-1.94,1-6.1,4-14.42,9.99
	c-8.52,6.13-9.23,7.12-18.71,13.96c-7.01,5.05-7.05,4.82-11.79,8.4c-7.18,5.43-6.99,5.89-13.47,10.69
	c-10.15,7.52-10.48,6.28-12.54,9.24c-1.42,2.04-3.39,5.68-7.46,6.96c-0.87,0.27-2.08,0.65-2.3,0.35
	C297.85,364.95,395.25,289.7,399.04,294.17z"/>
<path class="st1" d="M235.96,286.28c0.27-0.19,0.77,0.07,1.77,0.59c6.33,3.26,7.39,10.79,10.68,19.03
	c0.81,2.03,3.38,6.46,8.53,15.32c5.27,9.08,6.19,9.88,12.07,19.98c4.35,7.47,4.11,7.49,7.21,12.55c4.7,7.68,5.18,7.54,9.33,14.45
	c6.49,10.84,5.23,11.04,7.98,13.39c1.89,1.61,5.32,3.93,6.2,8.11c0.19,0.89,0.45,2.14,0.12,2.32
	C296.54,393.88,231.14,289.61,235.96,286.28z"/>
</svg>
