<?xml version="1.0" encoding="utf-8"?>
<!-- Generator: Adobe Illustrator 27.8.1, SVG Export Plug-In . SVG Version: 6.00 Build 0)  -->
<svg version="1.1" id="Layer_1" xmlns="http://www.w3.org/2000/svg" xmlns:xlink="http://www.w3.org/1999/xlink" x="0px" y="0px"
	 viewBox="0 0 600 600" style="enable-background:new 0 0 600 600;" xml:space="preserve">
<style type="text/css">
	.st0{fill:#FFF2BD;}
	.st1{fill:#F69D9F;}
	.st2{fill:url(#SVGID_1_);}
	.st3{fill:#63161A;}
</style>
<path class="st0" d="M406,97.26c-3.84,3.65,8.79,19.66,12.82,29.89c31.32,79.59-281.75,258.64-254.77,324.12
	c4.42,10.72,20.37,24.27,27.87,21.2c8.45-3.45,5.69-27.77,5.31-32.94c-6.63-89.82,272.72-254.57,248.98-318.01
	C439.78,104.34,410.54,92.94,406,97.26z"/>
<path class="st0" d="M172.37,115.53c1.94,4.93,21.52-0.76,32.51-0.65c85.53,0.88,133.84,358.28,204.65,357.88
	c11.6-0.07,30.14-9.76,30.12-17.87c-0.03-9.13-23.6-15.71-28.53-17.29C325.39,409.99,277.66,89.21,209.95,87.37
	C191.63,86.88,170.07,109.7,172.37,115.53z"/>
<path class="st0" d="M497.06,382.66c-3.54-3.94-19.91,8.2-30.25,11.92c-80.49,28.94-250.15-289.31-316.4-264.29
	c-10.85,4.1-24.86,19.64-22.02,27.23c3.2,8.55,27.59,6.51,32.76,6.28c89.98-3.95,246.35,280.17,310.47,258.32
	C488.97,416.22,501.24,387.33,497.06,382.66z"/>
<path class="st0" d="M485.75,148.59c-4.98,1.79,0.12,21.54-0.32,32.52c-3.42,85.47-362.1,123.13-363.8,193.93
	c-0.28,11.59,8.86,30.42,16.97,30.64c9.12,0.24,16.4-23.12,18.13-28C186.87,292.8,508.92,254.62,512.77,187
	C513.81,168.69,491.64,146.47,485.75,148.59z"/>
<path class="st0" d="M513.8,218.28c-5.29-0.17-7.83,20.06-12.3,30.1c-34.73,78.17-381.98-19.22-409.69,45.94
	c-4.54,10.67-2.99,31.54,4.46,34.73c8.39,3.59,23.78-15.43,27.19-19.33c59.34-67.75,372.74,15.65,401.28-45.78
	C532.46,247.32,520.06,218.48,513.8,218.28z"/>
<path class="st0" d="M336.83,64.65c-2.15,4.84,15.65,14.8,23.28,22.71c59.39,61.55-161.32,346.77-111.34,396.94
	c8.18,8.22,28.11,14.62,33.86,8.92c6.48-6.42-5.37-27.83-7.7-32.46c-40.5-80.45,154.54-339.56,108.33-389.08
	C370.75,58.27,339.37,58.93,336.83,64.65z"/>
<path class="st0" d="M374.37,483.44c0.33-5.29-19.82-8.43-29.72-13.19c-77.1-37.04,30.57-381.24-33.75-410.88
	c-10.53-4.85-31.44-3.93-34.85,3.42c-3.84,8.28,14.72,24.22,18.51,27.75c65.96,61.33-26.72,372.11,33.83,402.46
	C344.78,501.23,373.98,489.69,374.37,483.44z"/>
<path class="st0" d="M533.18,311.12c-4.78-2.29-15.26,15.2-23.39,22.59c-63.29,57.54-341.82-171.56-393.46-123.09
	c-8.46,7.94-15.45,27.66-9.92,33.58c6.23,6.67,27.98-4.54,32.67-6.73c81.62-38.09,334.81,164.57,385.69,119.85
	C538.56,345.22,538.83,313.83,533.18,311.12z"/>
<ellipse class="st1" cx="282.95" cy="293.01" rx="58.05" ry="77.99"/>
<linearGradient id="SVGID_1_" gradientUnits="userSpaceOnUse" x1="290.729" y1="295.1647" x2="406.8257" y2="295.1647">
	<stop  offset="0" style="stop-color:#F69DA0"/>
	<stop  offset="1" style="stop-color:#E7E96E"/>
</linearGradient>
<ellipse class="st2" cx="348.78" cy="295.16" rx="58.05" ry="77.99"/>
<path class="st3" d="M316.25,217.61L316.25,217.61c-15.61-5.57-23.55-15.73-21.77-21.09c1.59-4.76,11.44-7.46,23.13-6.12"/>
</svg>
