<?xml version="1.0" encoding="utf-8"?>
<!-- Generator: Adobe Illustrator 27.8.1, SVG Export Plug-In . SVG Version: 6.00 Build 0)  -->
<svg version="1.1" id="Layer_1" xmlns="http://www.w3.org/2000/svg" xmlns:xlink="http://www.w3.org/1999/xlink" x="0px" y="0px"
	 viewBox="0 0 600 600" style="enable-background:new 0 0 600 600;" xml:space="preserve">
<style type="text/css">
	.st0{fill:#B6D772;stroke:#000000;stroke-miterlimit:10;}
	.st1{fill:url(#SVGID_1_);stroke:#000000;stroke-miterlimit:10;}
	.st2{fill:#470500;stroke:#000000;stroke-miterlimit:10;}
</style>
<g>
	<path class="st0" d="M321.67,235.23c-18.7-14.26-75.63-54.3-120.47-35.8c-72.52,29.93-91.75,204.07-13,256.25
		c46.31,30.68,110.03,8.25,124.6,2.75"/>
	
		<linearGradient id="SVGID_1_" gradientUnits="userSpaceOnUse" x1="278.051" y1="339.3275" x2="447.7767" y2="409.0601" gradientTransform="matrix(0.9217 0.3877 0.3877 -0.9217 -108.6497 538.3876)">
		<stop  offset="7.139238e-07" style="stop-color:#B6D772"/>
		<stop  offset="0.6603" style="stop-color:#99CC67"/>
	</linearGradient>
	<path class="st1" d="M280.02,234.89c18.93-13.96,76.53-53.04,121.04-33.79c72.02,31.12,88.34,205.58,8.72,256.44
		c-46.83,29.9-110.15,6.42-124.62,0.66"/>
	<g>
		<path class="st2" d="M292.66,245.1c-10.05-3.52-10.98-26.43-8.7-40.73c4.6-28.66,27.95-59.33,52.91-59.19
			c12.79,0.07,24.94,8.23,24.3,11.95c-0.66,3.83-14.62,1.34-29.88,7.89c-4.51,1.94-27.06,11.37-29.13,26.86
			c-2.02,15.04-1.73,21.01-4.61,35.13C295.35,237.7,300.51,247.85,292.66,245.1z"/>
	</g>
	<path class="st2" d="M289.11,207.04"/>
</g>
</svg>
