<?xml version="1.0" encoding="utf-8"?>
<!-- Generator: Adobe Illustrator 27.8.1, SVG Export Plug-In . SVG Version: 6.00 Build 0)  -->
<svg version="1.1" id="Layer_1" xmlns="http://www.w3.org/2000/svg" xmlns:xlink="http://www.w3.org/1999/xlink" x="0px" y="0px"
	 viewBox="0 0 600 600" style="enable-background:new 0 0 600 600;" xml:space="preserve">
<style type="text/css">
	.st0{fill:#DB5026;stroke:#000000;stroke-miterlimit:10;}
	.st1{fill:url(#SVGID_1_);stroke:#000000;stroke-miterlimit:10;}
	.st2{fill:#470500;stroke:#000000;stroke-miterlimit:10;}
</style>
<g>
	<path class="st0" d="M329.42,211.47c-22.49-17.19-90.93-65.43-144.9-43.22C97.23,204.17,73.88,413.7,168.61,476.57
		C224.31,513.54,301,486.6,318.53,480"/>
	
		<linearGradient id="SVGID_1_" gradientUnits="userSpaceOnUse" x1="237.6498" y1="259.9335" x2="458.4219" y2="259.9335" gradientTransform="matrix(1 9.234430e-03 9.234430e-03 -1 38.1929 587.3082)">
		<stop  offset="0" style="stop-color:#DA5227"/>
		<stop  offset="0.3274" style="stop-color:#C98438"/>
		<stop  offset="0.8749" style="stop-color:#99CC67"/>
	</linearGradient>
	<path class="st1" d="M279.33,211.01c22.8-16.77,92.13-63.74,145.68-40.52c86.61,37.54,106.06,247.46,10.19,308.57
		c-56.38,35.94-132.55,7.59-149.96,0.67"/>
	<g>
		<path class="st2" d="M294.52,223.3c-12.09-4.25-13.18-31.8-10.41-49.02c5.55-34.48,33.7-71.35,63.71-71.17
			c15.4,0.09,30,9.93,29.22,14.41c-0.8,4.62-17.58,1.6-35.97,9.44c-5.43,2.32-32.58,13.64-35.09,32.3
			c-2.44,18.09-2.12,25.27-5.6,42.27C297.77,214.4,303.98,226.62,294.52,223.3z"/>
	</g>
	<path class="st2" d="M290.28,177.51"/>
</g>
</svg>
